<svg fill="none" viewBox="0 0 18 15" xmlns="http://www.w3.org/2000/svg" xmlns:xlink="http://www.w3.org/1999/xlink"><linearGradient id="a"><stop offset="0" stop-color="#ff5b00"/><stop offset="1" stop-color="#ff2525"/></linearGradient><linearGradient id="b" gradientUnits="userSpaceOnUse" x1="4.74968" x2="4.74968" xlink:href="#a" y1="14.7538" y2="8.4906"/><linearGradient id="c" gradientUnits="userSpaceOnUse" x1="13.256" x2="13.256" xlink:href="#a" y1="14.7538" y2="8.4906"/><linearGradient id="d" gradientUnits="userSpaceOnUse" x1="9.00301" x2="9.00301" y1="12.9331" y2="5.28613"><stop offset="0" stop-color="#087aea"/><stop offset="1" stop-color="#0953a7"/></linearGradient><path d="m8.86262 12.5231c-.04488-2.2325-1.8679-4.03311-4.11722-4.03311-2.24933 0-4.072352 1.79501-4.117226 4.03311v1.0713c0 .6395.516056 1.1556 1.155516 1.1556h5.91219c.63946 0 1.15552-.5161 1.15552-1.1556v-1.0713zm-6.83212 1.1555c-.1795 0-.31973-.1459-.31973-.3197v-.8358c.04487-1.6436 1.38549-2.95613 3.04023-2.95613 1.65475 0 2.99537 1.31823 3.04024 2.95613v.8358c0 .1795-.14584.3197-.31973.3197z" fill="url(#b)"/><path d="m17.3719 12.5231c-.0449-2.2325-1.8679-4.03311-4.1172-4.03311-2.2494 0-4.07237 1.79501-4.11725 4.03311v1.0713c0 .6395.51606 1.1556 1.15555 1.1556h5.9122c.6394 0 1.1555-.5161 1.1555-1.1556v-1.0713zm-6.8377 1.1555c-.1795 0-.3198-.1459-.3198-.3197v-.8358c.0449-1.6436 1.3855-2.95613 3.0403-2.95613 1.6491 0 2.9953 1.31823 3.0402 2.95613v.8358c0 .1795-.1458.3197-.3197.3197z" fill="url(#c)"/><path d="m8.98047 4.51867c.86383 0 1.40793-.72921 1.40793-1.36306 0-.43191-.3085-.58336-.3085-.9087 0-.26364.1627-.21876.1627-.4824 0-.17389-.1964-.39826-.3983-.56654.03927.11219.03927.18511.03927.37021 0 .27486-.28047.38144-.28047.63946 0 .31412.19072.2973.19072.57215 0 .14584-.09536.35339-.26364.35339-.16267 0-.28046-.20194-.28046-.38704 0-.31412.27485-.49923.27485-.78531 0-.44313-.46557-.84139-.46557-1.31257 0-.117795 0-.258028.11219-.39826-.26364.117795-.4207.218762-.4207.39826 0 .196325.21315.39826.21315.6058 0 .2973-.34777.56093-.34777.86944 0 .30291.19632.37022.19632.62824 0 .21877-.15145.38705-.31412.38705s-.3029-.17389-.3029-.36461c0-.28046.33656-.4263.33656-.65629 0-.2468-.22998-.35899-.22998-.50483 0-.10097.09536-.20755.1851-.32534-.29729.11779-.49361.33095-.49361.47118 0 .15145.12901.19072.12901.38143 0 .30851-.52166.62263-.52166 1.04333.01682.45435.38143 1.33501 1.37988 1.33501z" fill="#0953a7"/><path d="m14.0289 10.2065c-.0561-2.72616-2.283-4.92501-5.02592-4.92501-2.74295 0-4.96984 2.19324-5.02593 4.92501v1.3125c0 .7797.63385 1.4136 1.41354 1.4136h2.40078v-.4095c-.01122-.3141-.0617-.617-.16267-.8975h-1.94642c-.21877 0-.39265-.1739-.39265-.3926v-1.0209c.05609-2.00255 1.694-3.61242 3.71335-3.61242 2.01932 0 3.65722 1.60987 3.71332 3.61242v1.0209c0 .2187-.1739.3926-.3926.3926h-1.9464c-.0954.2861-.1515.5834-.1627.8975v.4095h2.4008c.7797 0 1.4135-.6339 1.4135-1.4136z" fill="url(#d)"/></svg>
