<svg xmlns="http://www.w3.org/2000/svg" xmlns:xlink="http://www.w3.org/1999/xlink" width="200" zoomAndPan="magnify" viewBox="0 0 150 36.750001" height="49" preserveAspectRatio="xMidYMid meet" version="1.0"><defs><clipPath id="ded0f938b0"><path d="M 5 4.066406 L 33 4.066406 L 33 35.675781 L 5 35.675781 Z M 5 4.066406 " clip-rule="nonzero"/></clipPath><clipPath id="a5a145e82b"><path d="M 0.507812 0.371094 L 38 0.371094 L 38 19 L 0.507812 19 Z M 0.507812 0.371094 " clip-rule="nonzero"/></clipPath><clipPath id="a5d1bf865f"><path d="M 41 0.371094 L 61 0.371094 L 61 23 L 41 23 Z M 41 0.371094 " clip-rule="nonzero"/></clipPath><clipPath id="22fde0ef34"><path d="M 64 0.371094 L 83 0.371094 L 83 23 L 64 23 Z M 64 0.371094 " clip-rule="nonzero"/></clipPath><clipPath id="f10717248c"><path d="M 85 0.371094 L 104 0.371094 L 104 23 L 85 23 Z M 85 0.371094 " clip-rule="nonzero"/></clipPath><clipPath id="487e945745"><path d="M 105 0.371094 L 129 0.371094 L 129 23 L 105 23 Z M 105 0.371094 " clip-rule="nonzero"/></clipPath><clipPath id="43802f4159"><path d="M 131 0.371094 L 149 0.371094 L 149 23 L 131 23 Z M 131 0.371094 " clip-rule="nonzero"/></clipPath></defs><g clip-path="url(#ded0f938b0)"><path fill="#0a714e" d="M 21.039062 5.152344 C 20.027344 4.140625 18.390625 4.140625 17.382812 5.152344 L 6.183594 16.359375 C 5.691406 16.84375 5.421875 17.492188 5.421875 18.183594 L 5.421875 32.980469 C 5.421875 34.40625 6.582031 35.5625 8.003906 35.5625 L 14.035156 35.5625 C 15.460938 35.5625 16.617188 34.40625 16.617188 32.980469 L 16.617188 26.089844 C 16.617188 25.621094 17 25.230469 17.476562 25.230469 L 20.925781 25.230469 C 21.398438 25.230469 21.78125 25.621094 21.78125 26.089844 L 21.78125 32.988281 C 21.78125 34.410156 22.945312 35.574219 24.367188 35.574219 L 30.394531 35.574219 C 31.816406 35.574219 32.980469 34.410156 32.980469 32.988281 L 32.980469 18.183594 C 32.980469 17.492188 32.707031 16.84375 32.222656 16.359375 Z M 31.277344 32.980469 C 31.277344 33.457031 30.894531 33.839844 30.417969 33.839844 L 24.386719 33.839844 C 23.917969 33.839844 23.527344 33.457031 23.527344 32.980469 L 23.527344 26.089844 C 23.527344 24.667969 22.371094 23.507812 20.945312 23.507812 L 17.496094 23.507812 C 16.078125 23.507812 14.914062 24.667969 14.914062 26.089844 L 14.914062 32.988281 C 14.914062 33.460938 14.53125 33.84375 14.054688 33.84375 L 8.003906 33.84375 C 7.527344 33.84375 7.144531 33.460938 7.144531 32.988281 L 7.144531 18.183594 C 7.144531 17.953125 7.234375 17.742188 7.402344 17.574219 L 18.597656 6.371094 C 18.921875 6.046875 19.496094 6.046875 19.816406 6.371094 L 31.023438 17.574219 C 31.191406 17.742188 31.277344 17.953125 31.277344 18.183594 Z M 31.277344 32.980469 " fill-opacity="1" fill-rule="nonzero"/></g><g clip-path="url(#a5a145e82b)"><path fill="#0a714e" d="M 21.039062 0.84375 C 20.058594 -0.132812 18.355469 -0.132812 17.382812 0.84375 L 12.320312 5.914062 L 12.320312 4.980469 C 12.320312 3.558594 11.160156 2.394531 9.738281 2.394531 L 8.003906 2.394531 C 6.582031 2.394531 5.421875 3.558594 5.421875 4.980469 L 5.421875 12.808594 L 0.503906 17.726562 L 1.726562 18.945312 L 18.597656 2.066406 C 18.921875 1.742188 19.496094 1.742188 19.816406 2.066406 L 36.695312 18.945312 L 37.917969 17.726562 Z M 7.144531 4.980469 C 7.144531 4.503906 7.527344 4.121094 8.003906 4.121094 L 9.726562 4.121094 C 10.203125 4.121094 10.585938 4.503906 10.585938 4.980469 L 10.585938 7.636719 L 7.140625 11.085938 L 7.140625 4.980469 Z M 7.144531 4.980469 " fill-opacity="1" fill-rule="nonzero"/></g><g clip-path="url(#a5d1bf865f)"><path fill="#0a714e" d="M 52.976562 9.265625 L 58.257812 9.265625 C 59.339844 9.304688 60.003906 9.589844 60.238281 10.109375 C 60.433594 10.492188 60.535156 11.046875 60.535156 11.78125 L 60.535156 18.375 C 60.535156 19.019531 60.25 19.628906 59.6875 20.203125 C 58.011719 21.945312 55.496094 22.8125 52.152344 22.8125 C 49.167969 22.8125 46.574219 21.695312 44.375 19.457031 C 42.175781 17.207031 41.078125 14.488281 41.078125 11.308594 C 41.078125 8.128906 42.195312 5.476562 44.433594 3.359375 C 46.671875 1.226562 49.308594 0.15625 52.347656 0.15625 C 54.710938 0.15625 56.945312 0.9375 59.042969 2.492188 C 59.578125 2.902344 59.847656 3.347656 59.847656 3.828125 C 59.847656 4.316406 59.617188 4.878906 59.160156 5.515625 C 58.375 6.578125 57.667969 7.105469 57.039062 7.105469 C 56.65625 7.105469 56.042969 6.832031 55.195312 6.28125 C 54.355469 5.734375 53.359375 5.457031 52.210938 5.457031 C 50.6875 5.457031 49.332031 6 48.144531 7.066406 C 46.96875 8.144531 46.378906 9.542969 46.378906 11.269531 C 46.378906 12.996094 46.976562 14.464844 48.183594 15.667969 C 49.386719 16.875 50.746094 17.472656 52.269531 17.472656 C 53.367188 17.472656 54.355469 17.296875 55.234375 16.941406 L 55.234375 13.683594 L 52.855469 13.683594 C 52.238281 13.683594 51.800781 13.605469 51.542969 13.449219 C 51.277344 13.28125 51.109375 13.046875 51.03125 12.742188 C 50.953125 12.425781 50.914062 12.011719 50.914062 11.484375 C 50.914062 10.949219 50.957031 10.523438 51.050781 10.210938 C 51.140625 9.886719 51.304688 9.660156 51.542969 9.542969 C 51.90625 9.359375 52.386719 9.265625 52.976562 9.265625 Z M 52.976562 9.265625 " fill-opacity="1" fill-rule="nonzero"/></g><g clip-path="url(#22fde0ef34)"><path fill="#0a714e" d="M 70.152344 17.21875 L 79.402344 17.21875 C 79.855469 17.21875 80.195312 17.234375 80.421875 17.257812 C 80.65625 17.285156 80.921875 17.382812 81.226562 17.550781 C 81.761719 17.828125 82.03125 18.605469 82.03125 19.886719 C 82.03125 21.292969 81.664062 22.105469 80.933594 22.339844 C 80.589844 22.460938 80.066406 22.519531 79.363281 22.519531 L 67.484375 22.519531 C 66.09375 22.519531 65.277344 22.140625 65.03125 21.378906 C 64.914062 21.066406 64.851562 20.554688 64.851562 19.847656 L 64.851562 3.179688 C 64.851562 2.160156 65.039062 1.46875 65.421875 1.101562 C 65.800781 0.738281 66.523438 0.550781 67.582031 0.550781 L 79.402344 0.550781 C 79.855469 0.550781 80.195312 0.566406 80.421875 0.589844 C 80.65625 0.617188 80.921875 0.71875 81.226562 0.882812 C 81.761719 1.160156 82.03125 1.9375 82.03125 3.21875 C 82.03125 4.625 81.664062 5.4375 80.933594 5.675781 C 80.589844 5.792969 80.066406 5.851562 79.363281 5.851562 L 70.152344 5.851562 L 70.152344 8.875 L 76.101562 8.875 C 76.558594 8.875 76.898438 8.894531 77.125 8.933594 C 77.359375 8.960938 77.625 9.050781 77.929688 9.207031 C 78.464844 9.484375 78.734375 10.261719 78.734375 11.542969 C 78.734375 12.949219 78.351562 13.761719 77.59375 14 C 77.25 14.117188 76.734375 14.175781 76.042969 14.175781 L 70.152344 14.175781 Z M 70.152344 17.21875 " fill-opacity="1" fill-rule="nonzero"/></g><g clip-path="url(#f10717248c)"><path fill="#0a714e" d="M 102.722656 18.808594 C 103.023438 19.53125 103.175781 20.042969 103.175781 20.359375 C 103.175781 21.121094 102.550781 21.761719 101.308594 22.28125 C 100.667969 22.558594 100.152344 22.695312 99.757812 22.695312 C 99.375 22.695312 99.058594 22.601562 98.796875 22.421875 C 98.546875 22.222656 98.363281 22.027344 98.246094 21.832031 C 98.050781 21.453125 97.269531 19.640625 95.910156 16.394531 L 94.988281 16.472656 L 91.199219 16.472656 L 91.199219 19.847656 C 91.199219 20.308594 91.183594 20.652344 91.160156 20.890625 C 91.128906 21.113281 91.042969 21.375 90.886719 21.675781 C 90.597656 22.214844 89.808594 22.480469 88.53125 22.480469 C 87.140625 22.480469 86.320312 22.117188 86.074219 21.378906 C 85.957031 21.042969 85.898438 20.527344 85.898438 19.828125 L 85.898438 3.179688 C 85.898438 2.722656 85.910156 2.386719 85.9375 2.160156 C 85.976562 1.925781 86.074219 1.660156 86.234375 1.355469 C 86.507812 0.820312 87.28125 0.550781 88.570312 0.550781 L 95.046875 0.550781 C 96.800781 0.550781 98.507812 1.1875 100.171875 2.453125 C 100.964844 3.082031 101.625 3.925781 102.132812 4.988281 C 102.65625 6.046875 102.917969 7.226562 102.917969 8.519531 C 102.917969 10.773438 102.171875 12.632812 100.683594 14.097656 C 101.113281 15.15625 101.789062 16.726562 102.722656 18.808594 Z M 91.199219 11.152344 L 95.046875 11.152344 C 95.621094 11.152344 96.195312 10.933594 96.773438 10.503906 C 97.363281 10.0625 97.660156 9.398438 97.660156 8.519531 C 97.660156 7.648438 97.363281 6.984375 96.773438 6.539062 C 96.195312 6.082031 95.601562 5.851562 94.988281 5.851562 L 91.199219 5.851562 Z M 91.199219 11.152344 " fill-opacity="1" fill-rule="nonzero"/></g><g clip-path="url(#487e945745)"><path fill="#0a714e" d="M 119.417969 2.101562 L 127.503906 18.828125 C 127.84375 19.511719 128.015625 20.019531 128.015625 20.359375 C 128.015625 21.082031 127.4375 21.726562 126.289062 22.300781 C 125.605469 22.640625 125.070312 22.8125 124.679688 22.8125 C 124.285156 22.8125 123.960938 22.71875 123.714844 22.539062 C 123.464844 22.371094 123.285156 22.183594 123.167969 21.988281 C 123.058594 21.78125 122.910156 21.476562 122.714844 21.085938 L 121.164062 17.847656 L 112.859375 17.847656 L 111.289062 21.085938 C 111.09375 21.476562 110.9375 21.765625 110.816406 21.949219 C 110.710938 22.136719 110.535156 22.320312 110.289062 22.519531 C 110.039062 22.699219 109.71875 22.792969 109.324219 22.792969 C 108.933594 22.792969 108.394531 22.621094 107.714844 22.28125 C 106.5625 21.722656 105.988281 21.082031 105.988281 20.359375 C 105.988281 20.019531 106.15625 19.511719 106.5 18.828125 L 114.585938 2.082031 C 114.808594 1.609375 115.140625 1.238281 115.589844 0.960938 C 116.046875 0.6875 116.519531 0.550781 117.023438 0.550781 C 118.089844 0.550781 118.890625 1.070312 119.417969 2.101562 Z M 116.980469 9.304688 L 115.019531 13.410156 L 119.003906 13.410156 Z M 116.980469 9.304688 " fill-opacity="1" fill-rule="nonzero"/></g><g clip-path="url(#43802f4159)"><path fill="#0a714e" d="M 148.410156 18.808594 C 148.710938 19.53125 148.863281 20.042969 148.863281 20.359375 C 148.863281 21.121094 148.238281 21.761719 147 22.28125 C 146.355469 22.558594 145.839844 22.695312 145.449219 22.695312 C 145.066406 22.695312 144.746094 22.601562 144.484375 22.421875 C 144.234375 22.222656 144.054688 22.027344 143.9375 21.832031 C 143.738281 21.453125 142.960938 19.640625 141.597656 16.394531 L 140.675781 16.472656 L 136.886719 16.472656 L 136.886719 19.847656 C 136.886719 20.308594 136.875 20.652344 136.847656 20.890625 C 136.820312 21.113281 136.730469 21.375 136.574219 21.675781 C 136.285156 22.214844 135.5 22.480469 134.21875 22.480469 C 132.828125 22.480469 132.007812 22.117188 131.765625 21.378906 C 131.644531 21.042969 131.585938 20.527344 131.585938 19.828125 L 131.585938 3.179688 C 131.585938 2.722656 131.597656 2.386719 131.625 2.160156 C 131.664062 1.925781 131.765625 1.660156 131.921875 1.355469 C 132.195312 0.820312 132.972656 0.550781 134.257812 0.550781 L 140.734375 0.550781 C 142.488281 0.550781 144.195312 1.1875 145.859375 2.453125 C 146.65625 3.082031 147.3125 3.925781 147.824219 4.988281 C 148.34375 6.046875 148.609375 7.226562 148.609375 8.519531 C 148.609375 10.773438 147.863281 12.632812 146.371094 14.097656 C 146.800781 15.15625 147.480469 16.726562 148.410156 18.808594 Z M 136.886719 11.152344 L 140.734375 11.152344 C 141.308594 11.152344 141.882812 10.933594 142.464844 10.503906 C 143.050781 10.0625 143.347656 9.398438 143.347656 8.519531 C 143.347656 7.648438 143.050781 6.984375 142.464844 6.539062 C 141.882812 6.082031 141.289062 5.851562 140.675781 5.851562 L 136.886719 5.851562 Z M 136.886719 11.152344 " fill-opacity="1" fill-rule="nonzero"/></g><path fill="#0a714e" d="M 49.871094 28.976562 L 50.5 26.050781 L 51.34375 26.050781 L 49.8125 33.234375 L 48.96875 33.234375 L 49.734375 29.683594 L 46.003906 29.683594 L 45.238281 33.234375 L 44.394531 33.234375 L 45.925781 26.050781 L 46.769531 26.050781 L 46.140625 28.976562 Z M 49.871094 28.976562 " fill-opacity="1" fill-rule="nonzero"/><path fill="#0a714e" d="M 59.71875 33.332031 C 59.179688 33.332031 58.710938 33.234375 58.308594 33.039062 C 57.898438 32.832031 57.585938 32.527344 57.363281 32.136719 C 57.140625 31.734375 57.03125 31.242188 57.03125 30.664062 C 57.03125 30.324219 57.070312 29.953125 57.148438 29.542969 C 57.410156 28.355469 57.867188 27.457031 58.523438 26.855469 C 59.191406 26.257812 60.003906 25.953125 60.976562 25.953125 C 61.511719 25.953125 61.984375 26.058594 62.390625 26.265625 C 62.792969 26.460938 63.105469 26.765625 63.332031 27.167969 C 63.570312 27.5625 63.6875 28.054688 63.6875 28.640625 C 63.6875 28.96875 63.636719 29.339844 63.550781 29.742188 C 63.296875 30.949219 62.84375 31.851562 62.175781 32.449219 C 61.515625 33.039062 60.703125 33.332031 59.71875 33.332031 Z M 59.800781 32.546875 C 60.53125 32.546875 61.140625 32.324219 61.625 31.863281 C 62.105469 31.390625 62.453125 30.644531 62.664062 29.625 C 62.742188 29.246094 62.785156 28.910156 62.785156 28.621094 C 62.785156 27.984375 62.617188 27.511719 62.292969 27.207031 C 61.964844 26.894531 61.507812 26.738281 60.917969 26.738281 C 60.183594 26.738281 59.570312 26.972656 59.074219 27.445312 C 58.585938 27.90625 58.238281 28.640625 58.03125 29.664062 C 57.953125 30.046875 57.914062 30.378906 57.914062 30.664062 C 57.914062 31.308594 58.078125 31.78125 58.40625 32.097656 C 58.742188 32.402344 59.210938 32.546875 59.800781 32.546875 Z M 59.800781 32.546875 " fill-opacity="1" fill-rule="nonzero"/><path fill="#0a714e" d="M 71.996094 33.332031 C 71.546875 33.332031 71.15625 33.253906 70.816406 33.097656 C 70.472656 32.941406 70.210938 32.714844 70.03125 32.410156 C 69.859375 32.113281 69.777344 31.757812 69.777344 31.351562 C 69.777344 31.144531 69.796875 30.917969 69.835938 30.683594 L 70.835938 26.050781 L 71.660156 26.050781 L 70.679688 30.664062 C 70.640625 30.898438 70.621094 31.109375 70.621094 31.292969 C 70.621094 31.714844 70.742188 32.027344 70.992188 32.234375 C 71.238281 32.445312 71.625 32.546875 72.152344 32.546875 C 72.738281 32.546875 73.214844 32.390625 73.585938 32.078125 C 73.960938 31.753906 74.21875 31.28125 74.351562 30.664062 L 75.332031 26.050781 L 76.175781 26.050781 L 75.195312 30.683594 C 75.0625 31.3125 74.859375 31.820312 74.585938 32.214844 C 74.3125 32.597656 73.957031 32.878906 73.527344 33.058594 C 73.101562 33.242188 72.59375 33.332031 71.996094 33.332031 Z M 71.996094 33.332031 " fill-opacity="1" fill-rule="nonzero"/><path fill="#0a714e" d="M 83.59375 33.332031 C 83.203125 33.332031 82.839844 33.273438 82.515625 33.15625 C 82.203125 33.03125 81.929688 32.859375 81.710938 32.648438 C 81.484375 32.441406 81.316406 32.210938 81.199219 31.960938 L 81.769531 31.429688 L 81.886719 31.429688 C 82.082031 31.820312 82.324219 32.113281 82.613281 32.292969 C 82.914062 32.480469 83.28125 32.566406 83.714844 32.566406 C 84.25 32.566406 84.664062 32.464844 84.96875 32.253906 C 85.285156 32.03125 85.480469 31.742188 85.558594 31.390625 C 85.582031 31.289062 85.597656 31.183594 85.597656 31.074219 C 85.597656 30.816406 85.503906 30.585938 85.324219 30.390625 C 85.136719 30.191406 84.855469 30.050781 84.480469 29.957031 L 83.695312 29.742188 C 83.230469 29.625 82.878906 29.421875 82.632812 29.132812 C 82.398438 28.832031 82.28125 28.480469 82.28125 28.074219 C 82.28125 27.914062 82.300781 27.753906 82.339844 27.582031 C 82.402344 27.265625 82.539062 26.992188 82.75 26.757812 C 82.957031 26.511719 83.25 26.316406 83.632812 26.167969 C 84.011719 26.027344 84.464844 25.953125 84.988281 25.953125 C 85.460938 25.953125 85.878906 26.039062 86.246094 26.207031 C 86.609375 26.378906 86.894531 26.621094 87.089844 26.933594 L 86.558594 27.484375 L 86.421875 27.484375 C 86.109375 26.964844 85.589844 26.699219 84.871094 26.699219 C 84.359375 26.699219 83.957031 26.785156 83.671875 26.953125 C 83.382812 27.125 83.207031 27.378906 83.144531 27.71875 C 83.113281 27.8125 83.105469 27.910156 83.105469 28.011719 C 83.105469 28.523438 83.429688 28.859375 84.085938 29.015625 L 84.8125 29.210938 C 85.363281 29.34375 85.773438 29.558594 86.050781 29.859375 C 86.324219 30.148438 86.460938 30.507812 86.460938 30.9375 C 86.460938 31.109375 86.441406 31.28125 86.402344 31.449219 C 86.285156 32.039062 85.992188 32.503906 85.519531 32.84375 C 85.046875 33.171875 84.40625 33.332031 83.59375 33.332031 Z M 83.59375 33.332031 " fill-opacity="1" fill-rule="nonzero"/><path fill="#0a714e" d="M 98.367188 26.050781 L 98.230469 26.757812 L 94.636719 26.757812 L 94.125 29.152344 L 97.289062 29.152344 L 97.148438 29.859375 L 93.988281 29.859375 L 93.417969 32.527344 L 97.070312 32.527344 L 96.933594 33.234375 L 92.417969 33.234375 L 93.949219 26.050781 Z M 98.367188 26.050781 " fill-opacity="1" fill-rule="nonzero"/><path fill="#0a714e" d="M 108.710938 28.976562 L 109.339844 26.050781 L 110.183594 26.050781 L 108.652344 33.234375 L 107.808594 33.234375 L 108.574219 29.683594 L 104.84375 29.683594 L 104.078125 33.234375 L 103.234375 33.234375 L 104.765625 26.050781 L 105.609375 26.050781 L 104.980469 28.976562 Z M 108.710938 28.976562 " fill-opacity="1" fill-rule="nonzero"/><path fill="#0a714e" d="M 118.5625 33.332031 C 118.019531 33.332031 117.550781 33.234375 117.148438 33.039062 C 116.738281 32.832031 116.425781 32.527344 116.203125 32.136719 C 115.980469 31.734375 115.871094 31.242188 115.871094 30.664062 C 115.871094 30.324219 115.910156 29.953125 115.988281 29.542969 C 116.25 28.355469 116.707031 27.457031 117.363281 26.855469 C 118.03125 26.257812 118.84375 25.953125 119.816406 25.953125 C 120.351562 25.953125 120.824219 26.058594 121.230469 26.265625 C 121.632812 26.460938 121.945312 26.765625 122.171875 27.167969 C 122.410156 27.5625 122.527344 28.054688 122.527344 28.640625 C 122.527344 28.96875 122.476562 29.339844 122.390625 29.742188 C 122.136719 30.949219 121.683594 31.851562 121.015625 32.449219 C 120.355469 33.039062 119.542969 33.332031 118.5625 33.332031 Z M 118.640625 32.546875 C 119.371094 32.546875 119.980469 32.324219 120.464844 31.863281 C 120.945312 31.390625 121.292969 30.644531 121.503906 29.625 C 121.585938 29.246094 121.625 28.910156 121.625 28.621094 C 121.625 27.984375 121.457031 27.511719 121.132812 27.207031 C 120.804688 26.894531 120.347656 26.738281 119.757812 26.738281 C 119.023438 26.738281 118.410156 26.972656 117.914062 27.445312 C 117.425781 27.90625 117.078125 28.640625 116.871094 29.664062 C 116.792969 30.046875 116.753906 30.378906 116.753906 30.664062 C 116.753906 31.308594 116.917969 31.78125 117.246094 32.097656 C 117.582031 32.402344 118.050781 32.546875 118.640625 32.546875 Z M 118.640625 32.546875 " fill-opacity="1" fill-rule="nonzero"/><path fill="#0a714e" d="M 130.578125 26.050781 L 129.203125 32.527344 L 132.660156 32.527344 L 132.503906 33.234375 L 128.203125 33.234375 L 129.734375 26.050781 Z M 130.578125 26.050781 " fill-opacity="1" fill-rule="nonzero"/><path fill="#0a714e" d="M 142.496094 26.050781 C 143.09375 26.050781 143.601562 26.160156 144.027344 26.363281 C 144.457031 26.5625 144.78125 26.855469 145.007812 27.246094 C 145.242188 27.640625 145.359375 28.105469 145.359375 28.640625 C 145.359375 28.945312 145.320312 29.28125 145.242188 29.644531 C 145.054688 30.496094 144.78125 31.1875 144.417969 31.722656 C 144.066406 32.25 143.597656 32.636719 143.023438 32.882812 C 142.460938 33.117188 141.777344 33.234375 140.984375 33.234375 L 138.644531 33.234375 L 140.175781 26.050781 Z M 144.339844 29.644531 C 144.417969 29.242188 144.457031 28.890625 144.457031 28.601562 C 144.457031 27.949219 144.269531 27.484375 143.90625 27.207031 C 143.539062 26.925781 142.988281 26.777344 142.257812 26.777344 L 140.863281 26.777344 L 139.648438 32.507812 L 141.042969 32.507812 C 141.640625 32.507812 142.160156 32.421875 142.59375 32.234375 C 143.023438 32.054688 143.382812 31.753906 143.671875 31.332031 C 143.972656 30.898438 144.191406 30.339844 144.339844 29.644531 Z M 144.339844 29.644531 " fill-opacity="1" fill-rule="nonzero"/></svg>