<svg xmlns="http://www.w3.org/2000/svg" xmlns:xlink="http://www.w3.org/1999/xlink" width="190" zoomAndPan="magnify" viewBox="0 0 142.5 36.750001" height="49" preserveAspectRatio="xMidYMid meet" version="1.0"><defs><clipPath id="f12cf80599"><path d="M 5 4 L 33.648438 4 L 33.648438 36.484375 L 5 36.484375 Z M 5 4 " clip-rule="nonzero"/></clipPath><clipPath id="ceb7030d9b"><path d="M 0.816406 0.394531 L 38.714844 0.394531 L 38.714844 20 L 0.816406 20 Z M 0.816406 0.394531 " clip-rule="nonzero"/></clipPath></defs><g clip-path="url(#f12cf80599)"><path fill="#0a714e" d="M 21.515625 5.71875 C 20.496094 4.703125 18.84375 4.703125 17.835938 5.71875 L 6.539062 17.015625 C 6.046875 17.503906 5.773438 18.15625 5.773438 18.859375 L 5.773438 33.769531 C 5.773438 35.203125 6.941406 36.371094 8.375 36.371094 L 14.457031 36.371094 C 15.890625 36.371094 17.058594 35.203125 17.058594 33.769531 L 17.058594 26.824219 C 17.058594 26.347656 17.449219 25.957031 17.921875 25.957031 L 21.402344 25.957031 C 21.875 25.957031 22.265625 26.347656 22.265625 26.824219 L 22.265625 33.777344 C 22.265625 35.214844 23.433594 36.382812 24.867188 36.382812 L 30.949219 36.382812 C 32.382812 36.382812 33.550781 35.214844 33.550781 33.777344 L 33.550781 18.859375 C 33.550781 18.15625 33.277344 17.503906 32.785156 17.015625 Z M 31.832031 33.769531 C 31.832031 34.25 31.449219 34.636719 30.96875 34.636719 L 24.894531 34.636719 C 24.414062 34.636719 24.027344 34.25 24.027344 33.769531 L 24.027344 26.824219 C 24.027344 25.390625 22.855469 24.222656 21.421875 24.222656 L 17.949219 24.222656 C 16.511719 24.222656 15.347656 25.390625 15.347656 26.824219 L 15.347656 33.777344 C 15.347656 34.253906 14.953125 34.644531 14.480469 34.644531 L 8.375 34.644531 C 7.902344 34.644531 7.511719 34.253906 7.511719 33.777344 L 7.511719 18.859375 C 7.511719 18.621094 7.605469 18.410156 7.773438 18.242188 L 19.054688 6.953125 C 19.382812 6.625 19.957031 6.625 20.28125 6.953125 L 31.578125 18.242188 C 31.746094 18.410156 31.832031 18.621094 31.832031 18.859375 Z M 31.832031 33.769531 " fill-opacity="1" fill-rule="nonzero"/></g><g clip-path="url(#ceb7030d9b)"><path fill="#0a714e" d="M 21.515625 1.382812 C 20.523438 0.394531 18.8125 0.394531 17.835938 1.382812 L 12.722656 6.488281 L 12.722656 5.546875 C 12.722656 4.113281 11.554688 2.945312 10.121094 2.945312 L 8.375 2.945312 C 6.941406 2.945312 5.773438 4.113281 5.773438 5.546875 L 5.773438 13.4375 L 0.816406 18.394531 L 2.046875 19.625 L 19.054688 2.609375 C 19.382812 2.28125 19.957031 2.28125 20.28125 2.609375 L 37.300781 19.625 L 38.527344 18.394531 Z M 7.511719 5.546875 C 7.511719 5.066406 7.902344 4.683594 8.375 4.683594 L 10.117188 4.683594 C 10.59375 4.683594 10.976562 5.066406 10.976562 5.546875 L 10.976562 8.222656 L 7.503906 11.703125 L 7.503906 5.546875 Z M 7.511719 5.546875 " fill-opacity="1" fill-rule="nonzero"/></g><path fill="#0a714e" d="M 51.859375 12.390625 L 56.726562 12.390625 C 57.726562 12.429688 58.339844 12.6875 58.566406 13.160156 C 58.75 13.519531 58.84375 14.042969 58.84375 14.726562 L 58.84375 20.820312 C 58.84375 21.414062 58.578125 21.976562 58.054688 22.5 C 56.511719 24.113281 54.183594 24.914062 51.089844 24.914062 C 48.328125 24.914062 45.933594 23.882812 43.90625 21.808594 C 41.871094 19.726562 40.859375 17.21875 40.859375 14.289062 C 40.859375 11.351562 41.890625 8.898438 43.964844 6.929688 C 46.03125 4.964844 48.464844 3.980469 51.265625 3.980469 C 53.453125 3.980469 55.519531 4.703125 57.460938 6.136719 C 57.945312 6.507812 58.191406 6.917969 58.191406 7.363281 C 58.191406 7.8125 57.980469 8.332031 57.558594 8.925781 C 56.847656 9.90625 56.195312 10.390625 55.601562 10.390625 C 55.242188 10.390625 54.675781 10.144531 53.898438 9.640625 C 53.132812 9.125 52.207031 8.867188 51.128906 8.867188 C 49.726562 8.867188 48.480469 9.363281 47.386719 10.351562 C 46.304688 11.339844 45.765625 12.636719 45.765625 14.230469 C 45.765625 15.828125 46.320312 17.1875 47.425781 18.308594 C 48.535156 19.429688 49.789062 19.988281 51.1875 19.988281 C 52.203125 19.988281 53.117188 19.824219 53.9375 19.492188 L 53.9375 16.464844 L 51.742188 16.464844 C 51.171875 16.464844 50.761719 16.398438 50.515625 16.25 C 50.277344 16.105469 50.117188 15.886719 50.039062 15.597656 C 49.96875 15.308594 49.941406 14.917969 49.941406 14.429688 C 49.941406 13.945312 49.980469 13.554688 50.058594 13.261719 C 50.148438 12.960938 50.308594 12.757812 50.535156 12.648438 C 50.859375 12.480469 51.304688 12.390625 51.859375 12.390625 Z M 51.859375 12.390625 " fill-opacity="1" fill-rule="nonzero"/><path fill="#0a714e" d="M 67.726562 19.730469 L 76.253906 19.730469 C 76.675781 19.730469 76.992188 19.746094 77.203125 19.769531 C 77.410156 19.800781 77.660156 19.890625 77.9375 20.046875 C 78.4375 20.300781 78.6875 21.015625 78.6875 22.203125 C 78.6875 23.5 78.339844 24.257812 77.660156 24.480469 C 77.351562 24.589844 76.878906 24.636719 76.234375 24.636719 L 65.253906 24.636719 C 63.957031 24.636719 63.199219 24.292969 62.976562 23.589844 C 62.867188 23.289062 62.820312 22.8125 62.820312 22.164062 L 62.820312 6.769531 C 62.820312 5.835938 62.988281 5.199219 63.332031 4.851562 C 63.6875 4.511719 64.351562 4.335938 65.332031 4.335938 L 76.253906 4.335938 C 76.675781 4.335938 76.992188 4.351562 77.203125 4.375 C 77.410156 4.40625 77.660156 4.488281 77.9375 4.632812 C 78.4375 4.902344 78.6875 5.617188 78.6875 6.789062 C 78.6875 8.085938 78.339844 8.84375 77.660156 9.066406 C 77.351562 9.183594 76.878906 9.242188 76.234375 9.242188 L 67.726562 9.242188 L 67.726562 12.035156 L 73.207031 12.035156 C 73.628906 12.035156 73.945312 12.050781 74.15625 12.074219 C 74.363281 12.101562 74.613281 12.1875 74.890625 12.332031 C 75.386719 12.597656 75.640625 13.320312 75.640625 14.507812 C 75.640625 15.804688 75.289062 16.554688 74.59375 16.761719 C 74.273438 16.882812 73.789062 16.941406 73.148438 16.941406 L 67.726562 16.941406 Z M 67.726562 19.730469 " fill-opacity="1" fill-rule="nonzero"/><path fill="#0a714e" d="M 97.792969 21.195312 C 98.070312 21.867188 98.207031 22.351562 98.207031 22.640625 C 98.207031 23.34375 97.636719 23.9375 96.503906 24.421875 C 95.910156 24.667969 95.425781 24.796875 95.0625 24.796875 C 94.703125 24.796875 94.40625 24.707031 94.171875 24.539062 C 93.941406 24.371094 93.78125 24.191406 93.675781 24.003906 C 93.488281 23.648438 92.769531 21.976562 91.519531 18.980469 L 90.648438 19.039062 L 87.164062 19.039062 L 87.164062 22.164062 C 87.164062 22.601562 87.152344 22.925781 87.125 23.132812 C 87.097656 23.347656 87.007812 23.589844 86.847656 23.867188 C 86.597656 24.371094 85.878906 24.617188 84.691406 24.617188 C 83.394531 24.617188 82.640625 24.277344 82.417969 23.589844 C 82.308594 23.273438 82.257812 22.792969 82.257812 22.144531 L 82.257812 6.769531 C 82.257812 6.351562 82.269531 6.035156 82.296875 5.820312 C 82.324219 5.613281 82.40625 5.367188 82.554688 5.089844 C 82.816406 4.589844 83.542969 4.335938 84.730469 4.335938 L 90.707031 4.335938 C 92.332031 4.335938 93.902344 4.925781 95.4375 6.097656 C 96.175781 6.679688 96.78125 7.457031 97.257812 8.433594 C 97.742188 9.414062 97.988281 10.5 97.988281 11.699219 C 97.988281 13.785156 97.296875 15.507812 95.910156 16.863281 C 96.316406 17.839844 96.945312 19.285156 97.792969 21.195312 Z M 87.164062 14.132812 L 90.707031 14.132812 C 91.246094 14.132812 91.78125 13.933594 92.3125 13.539062 C 92.851562 13.132812 93.121094 12.523438 93.121094 11.71875 C 93.121094 10.902344 92.851562 10.289062 92.3125 9.878906 C 91.78125 9.457031 91.226562 9.242188 90.648438 9.242188 L 87.164062 9.242188 Z M 87.164062 14.132812 " fill-opacity="1" fill-rule="nonzero"/><path fill="#0a714e" d="M 113.21875 5.78125 L 120.699219 21.234375 C 121.015625 21.859375 121.171875 22.324219 121.171875 22.640625 C 121.171875 23.3125 120.640625 23.917969 119.570312 24.441406 C 118.9375 24.757812 118.441406 24.914062 118.085938 24.914062 C 117.730469 24.914062 117.433594 24.828125 117.195312 24.660156 C 116.96875 24.5 116.804688 24.332031 116.703125 24.144531 C 116.59375 23.960938 116.449219 23.683594 116.265625 23.3125 L 114.820312 20.324219 L 107.164062 20.324219 L 105.71875 23.3125 C 105.53125 23.683594 105.386719 23.957031 105.285156 24.125 C 105.175781 24.28125 105.007812 24.457031 104.769531 24.636719 C 104.542969 24.808594 104.253906 24.894531 103.898438 24.894531 C 103.542969 24.894531 103.046875 24.738281 102.414062 24.421875 C 101.347656 23.90625 100.8125 23.3125 100.8125 22.640625 C 100.8125 22.324219 100.972656 21.859375 101.289062 21.234375 L 108.765625 5.742188 C 108.964844 5.320312 109.265625 4.984375 109.675781 4.734375 C 110.097656 4.46875 110.539062 4.335938 111.003906 4.335938 C 112.003906 4.335938 112.746094 4.820312 113.21875 5.78125 Z M 110.984375 12.429688 L 109.144531 16.210938 L 112.84375 16.210938 Z M 110.984375 12.429688 " fill-opacity="1" fill-rule="nonzero"/><path fill="#0a714e" d="M 139.996094 21.195312 C 140.273438 21.867188 140.410156 22.351562 140.410156 22.640625 C 140.410156 23.34375 139.839844 23.9375 138.707031 24.421875 C 138.117188 24.667969 137.628906 24.796875 137.265625 24.796875 C 136.910156 24.796875 136.613281 24.707031 136.375 24.539062 C 136.148438 24.371094 135.984375 24.191406 135.878906 24.003906 C 135.691406 23.648438 134.972656 21.976562 133.722656 18.980469 L 132.851562 19.039062 L 129.371094 19.039062 L 129.371094 22.164062 C 129.371094 22.601562 129.355469 22.925781 129.328125 23.132812 C 129.300781 23.347656 129.210938 23.589844 129.054688 23.867188 C 128.800781 24.371094 128.082031 24.617188 126.894531 24.617188 C 125.601562 24.617188 124.84375 24.277344 124.621094 23.589844 C 124.511719 23.273438 124.460938 22.792969 124.460938 22.144531 L 124.460938 6.769531 C 124.460938 6.351562 124.472656 6.035156 124.5 5.820312 C 124.527344 5.613281 124.609375 5.367188 124.757812 5.089844 C 125.019531 4.589844 125.75 4.335938 126.933594 4.335938 L 132.910156 4.335938 C 134.535156 4.335938 136.105469 4.925781 137.640625 6.097656 C 138.378906 6.679688 138.984375 7.457031 139.460938 8.433594 C 139.945312 9.414062 140.191406 10.5 140.191406 11.699219 C 140.191406 13.785156 139.5 15.507812 138.117188 16.863281 C 138.519531 17.839844 139.148438 19.285156 139.996094 21.195312 Z M 129.371094 14.132812 L 132.910156 14.132812 C 133.449219 14.132812 133.984375 13.933594 134.515625 13.539062 C 135.054688 13.132812 135.324219 12.523438 135.324219 11.71875 C 135.324219 10.902344 135.054688 10.289062 134.515625 9.878906 C 133.984375 9.457031 133.429688 9.242188 132.851562 9.242188 L 129.371094 9.242188 Z M 129.371094 14.132812 " fill-opacity="1" fill-rule="nonzero"/><path fill="#0a714e" d="M 46.871094 30.363281 L 47.382812 27.988281 L 48.628906 27.988281 L 47.285156 34.320312 L 46.039062 34.320312 L 46.652344 31.433594 L 43.804688 31.433594 L 43.1875 34.320312 L 41.941406 34.320312 L 43.289062 27.988281 L 44.535156 27.988281 L 44.019531 30.363281 Z M 46.871094 30.363281 " fill-opacity="1" fill-rule="nonzero"/><path fill="#0a714e" d="M 56.957031 34.421875 C 56.464844 34.421875 56.035156 34.328125 55.671875 34.144531 C 55.300781 33.960938 55.007812 33.6875 54.800781 33.332031 C 54.601562 32.964844 54.503906 32.515625 54.503906 31.988281 C 54.503906 31.644531 54.542969 31.285156 54.621094 30.898438 C 54.765625 30.253906 54.996094 29.707031 55.3125 29.257812 C 55.640625 28.8125 56.035156 28.476562 56.5 28.246094 C 56.976562 28.023438 57.5 27.910156 58.085938 27.910156 C 58.582031 27.910156 59.019531 28.003906 59.390625 28.1875 C 59.757812 28.359375 60.042969 28.621094 60.242188 28.980469 C 60.4375 29.335938 60.539062 29.785156 60.539062 30.324219 C 60.539062 30.671875 60.5 31.03125 60.417969 31.414062 C 60.269531 32.074219 60.042969 32.628906 59.726562 33.074219 C 59.410156 33.511719 59.015625 33.847656 58.539062 34.085938 C 58.074219 34.3125 57.550781 34.421875 56.957031 34.421875 Z M 57.054688 33.332031 C 57.59375 33.332031 58.042969 33.15625 58.402344 32.796875 C 58.757812 32.441406 59.015625 31.898438 59.171875 31.15625 C 59.238281 30.867188 59.269531 30.613281 59.269531 30.382812 C 59.269531 29.9375 59.15625 29.59375 58.933594 29.355469 C 58.707031 29.109375 58.390625 28.980469 57.984375 28.980469 C 57.457031 28.980469 57.003906 29.15625 56.640625 29.511719 C 56.285156 29.871094 56.027344 30.417969 55.867188 31.15625 C 55.796875 31.433594 55.769531 31.691406 55.769531 31.925781 C 55.769531 32.378906 55.878906 32.730469 56.105469 32.976562 C 56.328125 33.214844 56.644531 33.332031 57.054688 33.332031 Z M 57.054688 33.332031 " fill-opacity="1" fill-rule="nonzero"/><path fill="#0a714e" d="M 69.054688 34.421875 C 68.578125 34.421875 68.171875 34.347656 67.847656 34.203125 C 67.515625 34.042969 67.261719 33.828125 67.09375 33.550781 C 66.921875 33.261719 66.835938 32.910156 66.835938 32.5 C 66.835938 32.277344 66.863281 32.042969 66.917969 31.789062 L 67.726562 27.988281 L 68.953125 27.988281 L 68.125 31.949219 C 68.085938 32.105469 68.0625 32.253906 68.0625 32.382812 C 68.0625 32.699219 68.152344 32.9375 68.339844 33.09375 C 68.523438 33.253906 68.796875 33.332031 69.152344 33.332031 C 69.613281 33.332031 69.972656 33.222656 70.242188 32.996094 C 70.519531 32.773438 70.699219 32.421875 70.796875 31.949219 L 71.644531 27.988281 L 72.871094 27.988281 L 72.023438 31.949219 C 71.902344 32.53125 71.726562 32.996094 71.488281 33.351562 C 71.25 33.707031 70.933594 33.980469 70.539062 34.164062 C 70.152344 34.332031 69.65625 34.421875 69.054688 34.421875 Z M 69.054688 34.421875 " fill-opacity="1" fill-rule="nonzero"/><path fill="#0a714e" d="M 80.410156 34.421875 C 80 34.421875 79.640625 34.363281 79.324219 34.242188 C 79.007812 34.125 78.75 33.976562 78.550781 33.789062 C 78.351562 33.605469 78.203125 33.402344 78.117188 33.175781 L 78.964844 32.402344 L 79.066406 32.402344 C 79.195312 32.695312 79.386719 32.925781 79.640625 33.09375 C 79.902344 33.253906 80.234375 33.332031 80.628906 33.332031 C 80.957031 33.332031 81.222656 33.269531 81.421875 33.132812 C 81.617188 32.992188 81.742188 32.808594 81.796875 32.582031 C 81.804688 32.5 81.816406 32.433594 81.816406 32.363281 C 81.816406 32.195312 81.761719 32.054688 81.65625 31.949219 C 81.546875 31.84375 81.367188 31.757812 81.105469 31.691406 L 80.488281 31.511719 C 80.023438 31.382812 79.664062 31.183594 79.402344 30.917969 C 79.148438 30.640625 79.027344 30.304688 79.027344 29.910156 C 79.027344 29.78125 79.046875 29.640625 79.085938 29.492188 C 79.175781 29.019531 79.425781 28.636719 79.835938 28.347656 C 80.242188 28.058594 80.835938 27.910156 81.617188 27.910156 C 82.101562 27.910156 82.511719 27.984375 82.84375 28.128906 C 83.1875 28.261719 83.457031 28.464844 83.65625 28.742188 L 82.863281 29.535156 L 82.765625 29.535156 C 82.617188 29.351562 82.4375 29.210938 82.230469 29.117188 C 82.019531 29.027344 81.761719 28.980469 81.460938 28.980469 C 81.128906 28.980469 80.855469 29.039062 80.648438 29.15625 C 80.449219 29.265625 80.332031 29.410156 80.292969 29.59375 C 80.277344 29.660156 80.273438 29.722656 80.273438 29.769531 C 80.273438 29.929688 80.320312 30.0625 80.429688 30.167969 C 80.550781 30.273438 80.71875 30.355469 80.945312 30.402344 L 81.636719 30.601562 C 82.121094 30.71875 82.492188 30.914062 82.746094 31.175781 C 82.992188 31.429688 83.121094 31.75 83.121094 32.144531 C 83.121094 32.304688 83.101562 32.460938 83.0625 32.621094 C 82.808594 33.820312 81.925781 34.421875 80.410156 34.421875 Z M 80.410156 34.421875 " fill-opacity="1" fill-rule="nonzero"/><path fill="#0a714e" d="M 94.710938 27.988281 L 94.492188 29.039062 L 91.542969 29.039062 L 91.226562 30.523438 L 93.800781 30.523438 L 93.582031 31.550781 L 91.011719 31.550781 L 90.632812 33.273438 L 93.660156 33.273438 L 93.445312 34.320312 L 89.171875 34.320312 L 90.515625 27.988281 Z M 94.710938 27.988281 " fill-opacity="1" fill-rule="nonzero"/><path fill="#0a714e" d="M 104.839844 30.363281 L 105.351562 27.988281 L 106.601562 27.988281 L 105.253906 34.320312 L 104.007812 34.320312 L 104.621094 31.433594 L 101.773438 31.433594 L 101.160156 34.320312 L 99.910156 34.320312 L 101.257812 27.988281 L 102.503906 27.988281 L 101.988281 30.363281 Z M 104.839844 30.363281 " fill-opacity="1" fill-rule="nonzero"/><path fill="#0a714e" d="M 114.925781 34.421875 C 114.4375 34.421875 114.003906 34.328125 113.640625 34.144531 C 113.269531 33.960938 112.976562 33.6875 112.769531 33.332031 C 112.570312 32.964844 112.472656 32.515625 112.472656 31.988281 C 112.472656 31.644531 112.511719 31.285156 112.589844 30.898438 C 112.734375 30.253906 112.964844 29.707031 113.28125 29.257812 C 113.609375 28.8125 114.003906 28.476562 114.46875 28.246094 C 114.945312 28.023438 115.46875 27.910156 116.054688 27.910156 C 116.554688 27.910156 116.988281 28.003906 117.359375 28.1875 C 117.726562 28.359375 118.011719 28.621094 118.210938 28.980469 C 118.40625 29.335938 118.507812 29.785156 118.507812 30.324219 C 118.507812 30.671875 118.46875 31.03125 118.386719 31.414062 C 118.238281 32.074219 118.011719 32.628906 117.695312 33.074219 C 117.378906 33.511719 116.984375 33.847656 116.507812 34.085938 C 116.042969 34.3125 115.519531 34.421875 114.925781 34.421875 Z M 115.023438 33.332031 C 115.5625 33.332031 116.015625 33.15625 116.371094 32.796875 C 116.726562 32.441406 116.984375 31.898438 117.140625 31.15625 C 117.207031 30.867188 117.242188 30.613281 117.242188 30.382812 C 117.242188 29.9375 117.125 29.59375 116.902344 29.355469 C 116.675781 29.109375 116.359375 28.980469 115.953125 28.980469 C 115.425781 28.980469 114.976562 29.15625 114.609375 29.511719 C 114.253906 29.871094 113.996094 30.417969 113.835938 31.15625 C 113.769531 31.433594 113.738281 31.691406 113.738281 31.925781 C 113.738281 32.378906 113.847656 32.730469 114.074219 32.976562 C 114.296875 33.214844 114.613281 33.332031 115.023438 33.332031 Z M 115.023438 33.332031 " fill-opacity="1" fill-rule="nonzero"/><path fill="#0a714e" d="M 126.984375 27.988281 L 125.855469 33.273438 L 128.703125 33.273438 L 128.488281 34.320312 L 124.390625 34.320312 L 125.738281 27.988281 Z M 126.984375 27.988281 " fill-opacity="1" fill-rule="nonzero"/><path fill="#0a714e" d="M 138.378906 27.988281 C 138.933594 27.988281 139.40625 28.089844 139.804688 28.285156 C 140.199219 28.484375 140.496094 28.769531 140.695312 29.136719 C 140.890625 29.492188 140.992188 29.925781 140.992188 30.421875 C 140.992188 30.699219 140.957031 31.015625 140.890625 31.375 C 140.679688 32.339844 140.265625 33.070312 139.644531 33.570312 C 139.023438 34.074219 138.171875 34.320312 137.09375 34.320312 L 134.816406 34.320312 L 136.164062 27.988281 Z M 139.644531 31.15625 C 139.695312 30.910156 139.722656 30.675781 139.722656 30.464844 C 139.722656 29.988281 139.585938 29.632812 139.308594 29.394531 C 139.042969 29.15625 138.65625 29.039062 138.140625 29.039062 L 137.191406 29.039062 L 136.300781 33.273438 L 137.230469 33.273438 C 137.875 33.273438 138.398438 33.109375 138.792969 32.777344 C 139.199219 32.4375 139.488281 31.898438 139.644531 31.15625 Z M 139.644531 31.15625 " fill-opacity="1" fill-rule="nonzero"/></svg>