<svg xmlns="http://www.w3.org/2000/svg" xmlns:xlink="http://www.w3.org/1999/xlink" width="200" zoomAndPan="magnify" viewBox="0 0 150 149.999998" height="200" preserveAspectRatio="xMidYMid meet" version="1.0"><defs><g/><clipPath id="60512f15f8"><path d="M 22 64 L 45 64 L 45 89.871094 L 22 89.871094 Z M 22 64 " clip-rule="nonzero"/></clipPath><clipPath id="81775ca174"><path d="M 19.074219 61.371094 L 49 61.371094 L 49 77 L 19.074219 77 Z M 19.074219 61.371094 " clip-rule="nonzero"/></clipPath><clipPath id="8dbb673c2f"><rect x="0" width="85" y="0" height="11"/></clipPath></defs><g clip-path="url(#60512f15f8)"><path fill="#0a714e" d="M 35.417969 65.578125 C 34.613281 64.773438 33.308594 64.773438 32.511719 65.578125 L 23.59375 74.496094 C 23.203125 74.882812 22.988281 75.398438 22.988281 75.953125 L 22.988281 87.726562 C 22.988281 88.859375 23.910156 89.78125 25.042969 89.78125 L 29.84375 89.78125 C 30.976562 89.78125 31.898438 88.859375 31.898438 87.726562 L 31.898438 82.242188 C 31.898438 81.867188 32.207031 81.558594 32.582031 81.558594 L 35.328125 81.558594 C 35.703125 81.558594 36.011719 81.867188 36.011719 82.242188 L 36.011719 87.734375 C 36.011719 88.867188 36.933594 89.789062 38.066406 89.789062 L 42.867188 89.789062 C 44 89.789062 44.921875 88.867188 44.921875 87.734375 L 44.921875 75.953125 C 44.921875 75.398438 44.707031 74.882812 44.316406 74.496094 Z M 43.566406 87.726562 C 43.566406 88.105469 43.261719 88.410156 42.882812 88.410156 L 38.085938 88.410156 C 37.707031 88.410156 37.402344 88.105469 37.402344 87.726562 L 37.402344 82.242188 C 37.402344 81.109375 36.476562 80.1875 35.34375 80.1875 L 32.601562 80.1875 C 31.46875 80.1875 30.546875 81.109375 30.546875 82.242188 L 30.546875 87.734375 C 30.546875 88.109375 30.238281 88.417969 29.863281 88.417969 L 25.042969 88.417969 C 24.667969 88.417969 24.359375 88.109375 24.359375 87.734375 L 24.359375 75.953125 C 24.359375 75.765625 24.433594 75.597656 24.566406 75.464844 L 33.476562 66.550781 C 33.734375 66.292969 34.1875 66.292969 34.445312 66.550781 L 43.363281 75.464844 C 43.496094 75.597656 43.566406 75.765625 43.566406 75.953125 Z M 43.566406 87.726562 " fill-opacity="1" fill-rule="nonzero"/></g><g clip-path="url(#81775ca174)"><path fill="#0a714e" d="M 35.417969 62.152344 C 34.636719 61.371094 33.285156 61.371094 32.511719 62.152344 L 28.476562 66.183594 L 28.476562 65.441406 C 28.476562 64.308594 27.554688 63.386719 26.421875 63.386719 L 25.042969 63.386719 C 23.910156 63.386719 22.988281 64.308594 22.988281 65.441406 L 22.988281 71.671875 L 19.074219 75.585938 L 20.046875 76.558594 L 33.476562 63.121094 C 33.734375 62.863281 34.1875 62.863281 34.445312 63.121094 L 47.882812 76.558594 L 48.851562 75.585938 Z M 24.359375 65.441406 C 24.359375 65.0625 24.667969 64.757812 25.042969 64.757812 L 26.417969 64.757812 C 26.792969 64.757812 27.097656 65.0625 27.097656 65.441406 L 27.097656 67.554688 L 24.355469 70.300781 L 24.355469 65.441406 Z M 24.359375 65.441406 " fill-opacity="1" fill-rule="nonzero"/></g><g fill="#0a714e" fill-opacity="1"><g transform="translate(50.145895, 80.516657)"><g><path d="M 9.234375 -9.671875 L 13.078125 -9.671875 C 13.867188 -9.640625 14.351562 -9.4375 14.53125 -9.0625 C 14.675781 -8.78125 14.75 -8.367188 14.75 -7.828125 L 14.75 -3.015625 C 14.75 -2.546875 14.539062 -2.101562 14.125 -1.6875 C 12.90625 -0.414062 11.070312 0.21875 8.625 0.21875 C 6.445312 0.21875 4.554688 -0.597656 2.953125 -2.234375 C 1.347656 -3.878906 0.546875 -5.859375 0.546875 -8.171875 C 0.546875 -10.492188 1.363281 -12.429688 3 -13.984375 C 4.632812 -15.535156 6.554688 -16.3125 8.765625 -16.3125 C 10.492188 -16.3125 12.125 -15.742188 13.65625 -14.609375 C 14.039062 -14.316406 14.234375 -13.992188 14.234375 -13.640625 C 14.234375 -13.285156 14.066406 -12.875 13.734375 -12.40625 C 13.171875 -11.632812 12.65625 -11.25 12.1875 -11.25 C 11.90625 -11.25 11.457031 -11.445312 10.84375 -11.84375 C 10.238281 -12.25 9.507812 -12.453125 8.65625 -12.453125 C 7.550781 -12.453125 6.566406 -12.0625 5.703125 -11.28125 C 4.847656 -10.5 4.421875 -9.476562 4.421875 -8.21875 C 4.421875 -6.957031 4.859375 -5.882812 5.734375 -5 C 6.609375 -4.113281 7.597656 -3.671875 8.703125 -3.671875 C 9.503906 -3.671875 10.226562 -3.800781 10.875 -4.0625 L 10.875 -6.453125 L 9.140625 -6.453125 C 8.691406 -6.453125 8.367188 -6.507812 8.171875 -6.625 C 7.984375 -6.738281 7.859375 -6.910156 7.796875 -7.140625 C 7.742188 -7.367188 7.71875 -7.675781 7.71875 -8.0625 C 7.71875 -8.445312 7.75 -8.753906 7.8125 -8.984375 C 7.882812 -9.222656 8.007812 -9.382812 8.1875 -9.46875 C 8.445312 -9.601562 8.796875 -9.671875 9.234375 -9.671875 Z M 9.234375 -9.671875 "/></g></g></g><g fill="#0a714e" fill-opacity="1"><g transform="translate(67.158716, 80.516657)"><g><path d="M 4.75 -3.875 L 11.484375 -3.875 C 11.816406 -3.875 12.066406 -3.863281 12.234375 -3.84375 C 12.398438 -3.820312 12.59375 -3.75 12.8125 -3.625 C 13.207031 -3.425781 13.40625 -2.859375 13.40625 -1.921875 C 13.40625 -0.898438 13.132812 -0.300781 12.59375 -0.125 C 12.351562 -0.0390625 11.976562 0 11.46875 0 L 2.796875 0 C 1.773438 0 1.175781 -0.273438 1 -0.828125 C 0.914062 -1.066406 0.875 -1.441406 0.875 -1.953125 L 0.875 -14.109375 C 0.875 -14.847656 1.007812 -15.351562 1.28125 -15.625 C 1.5625 -15.894531 2.085938 -16.03125 2.859375 -16.03125 L 11.484375 -16.03125 C 11.816406 -16.03125 12.066406 -16.019531 12.234375 -16 C 12.398438 -15.976562 12.59375 -15.910156 12.8125 -15.796875 C 13.207031 -15.585938 13.40625 -15.019531 13.40625 -14.09375 C 13.40625 -13.070312 13.132812 -12.472656 12.59375 -12.296875 C 12.351562 -12.203125 11.976562 -12.15625 11.46875 -12.15625 L 4.75 -12.15625 L 4.75 -9.953125 L 9.078125 -9.953125 C 9.410156 -9.953125 9.660156 -9.941406 9.828125 -9.921875 C 9.992188 -9.898438 10.1875 -9.832031 10.40625 -9.71875 C 10.800781 -9.507812 11 -8.9375 11 -8 C 11 -6.976562 10.722656 -6.382812 10.171875 -6.21875 C 9.921875 -6.125 9.539062 -6.078125 9.03125 -6.078125 L 4.75 -6.078125 Z M 4.75 -3.875 "/></g></g></g><g fill="#0a714e" fill-opacity="1"><g transform="translate(82.509625, 80.516657)"><g><path d="M 13.140625 -2.71875 C 13.359375 -2.1875 13.46875 -1.804688 13.46875 -1.578125 C 13.46875 -1.023438 13.019531 -0.554688 12.125 -0.171875 C 11.65625 0.0234375 11.273438 0.125 10.984375 0.125 C 10.703125 0.125 10.46875 0.0546875 10.28125 -0.078125 C 10.101562 -0.210938 9.972656 -0.351562 9.890625 -0.5 C 9.742188 -0.78125 9.175781 -2.101562 8.1875 -4.46875 L 7.5 -4.421875 L 4.75 -4.421875 L 4.75 -1.953125 C 4.75 -1.609375 4.738281 -1.351562 4.71875 -1.1875 C 4.695312 -1.019531 4.625 -0.828125 4.5 -0.609375 C 4.300781 -0.210938 3.734375 -0.015625 2.796875 -0.015625 C 1.773438 -0.015625 1.175781 -0.285156 1 -0.828125 C 0.914062 -1.078125 0.875 -1.457031 0.875 -1.96875 L 0.875 -14.109375 C 0.875 -14.441406 0.882812 -14.691406 0.90625 -14.859375 C 0.925781 -15.023438 0.992188 -15.21875 1.109375 -15.4375 C 1.316406 -15.832031 1.890625 -16.03125 2.828125 -16.03125 L 7.546875 -16.03125 C 8.828125 -16.03125 10.070312 -15.566406 11.28125 -14.640625 C 11.863281 -14.179688 12.34375 -13.566406 12.71875 -12.796875 C 13.101562 -12.023438 13.296875 -11.164062 13.296875 -10.21875 C 13.296875 -8.570312 12.75 -7.210938 11.65625 -6.140625 C 11.976562 -5.367188 12.472656 -4.226562 13.140625 -2.71875 Z M 4.75 -8.296875 L 7.546875 -8.296875 C 7.972656 -8.296875 8.394531 -8.453125 8.8125 -8.765625 C 9.238281 -9.085938 9.453125 -9.566406 9.453125 -10.203125 C 9.453125 -10.847656 9.238281 -11.332031 8.8125 -11.65625 C 8.394531 -11.988281 7.957031 -12.15625 7.5 -12.15625 L 4.75 -12.15625 Z M 4.75 -8.296875 "/></g></g></g><g fill="#0a714e" fill-opacity="1"><g transform="translate(97.70747, 80.516657)"><g><path d="M 10.125 -14.890625 L 16.03125 -2.6875 C 16.28125 -2.195312 16.40625 -1.828125 16.40625 -1.578125 C 16.40625 -1.046875 15.984375 -0.570312 15.140625 -0.15625 C 14.640625 0.09375 14.25 0.21875 13.96875 0.21875 C 13.6875 0.21875 13.453125 0.148438 13.265625 0.015625 C 13.085938 -0.109375 12.957031 -0.242188 12.875 -0.390625 C 12.789062 -0.535156 12.675781 -0.753906 12.53125 -1.046875 L 11.390625 -3.40625 L 5.34375 -3.40625 L 4.203125 -1.046875 C 4.054688 -0.753906 3.941406 -0.539062 3.859375 -0.40625 C 3.773438 -0.28125 3.640625 -0.144531 3.453125 0 C 3.273438 0.132812 3.046875 0.203125 2.765625 0.203125 C 2.484375 0.203125 2.09375 0.078125 1.59375 -0.171875 C 0.75 -0.578125 0.328125 -1.046875 0.328125 -1.578125 C 0.328125 -1.828125 0.453125 -2.195312 0.703125 -2.6875 L 6.609375 -14.921875 C 6.765625 -15.253906 7.003906 -15.519531 7.328125 -15.71875 C 7.660156 -15.925781 8.007812 -16.03125 8.375 -16.03125 C 9.164062 -16.03125 9.75 -15.648438 10.125 -14.890625 Z M 8.359375 -9.640625 L 6.90625 -6.65625 L 9.828125 -6.65625 Z M 8.359375 -9.640625 "/></g></g></g><g fill="#0a714e" fill-opacity="1"><g transform="translate(115.835517, 80.516657)"><g><path d="M 13.140625 -2.71875 C 13.359375 -2.1875 13.46875 -1.804688 13.46875 -1.578125 C 13.46875 -1.023438 13.019531 -0.554688 12.125 -0.171875 C 11.65625 0.0234375 11.273438 0.125 10.984375 0.125 C 10.703125 0.125 10.46875 0.0546875 10.28125 -0.078125 C 10.101562 -0.210938 9.972656 -0.351562 9.890625 -0.5 C 9.742188 -0.78125 9.175781 -2.101562 8.1875 -4.46875 L 7.5 -4.421875 L 4.75 -4.421875 L 4.75 -1.953125 C 4.75 -1.609375 4.738281 -1.351562 4.71875 -1.1875 C 4.695312 -1.019531 4.625 -0.828125 4.5 -0.609375 C 4.300781 -0.210938 3.734375 -0.015625 2.796875 -0.015625 C 1.773438 -0.015625 1.175781 -0.285156 1 -0.828125 C 0.914062 -1.078125 0.875 -1.457031 0.875 -1.96875 L 0.875 -14.109375 C 0.875 -14.441406 0.882812 -14.691406 0.90625 -14.859375 C 0.925781 -15.023438 0.992188 -15.21875 1.109375 -15.4375 C 1.316406 -15.832031 1.890625 -16.03125 2.828125 -16.03125 L 7.546875 -16.03125 C 8.828125 -16.03125 10.070312 -15.566406 11.28125 -14.640625 C 11.863281 -14.179688 12.34375 -13.566406 12.71875 -12.796875 C 13.101562 -12.023438 13.296875 -11.164062 13.296875 -10.21875 C 13.296875 -8.570312 12.75 -7.210938 11.65625 -6.140625 C 11.976562 -5.367188 12.472656 -4.226562 13.140625 -2.71875 Z M 4.75 -8.296875 L 7.546875 -8.296875 C 7.972656 -8.296875 8.394531 -8.453125 8.8125 -8.765625 C 9.238281 -9.085938 9.453125 -9.566406 9.453125 -10.203125 C 9.453125 -10.847656 9.238281 -11.332031 8.8125 -11.65625 C 8.394531 -11.988281 7.957031 -12.15625 7.5 -12.15625 L 4.75 -12.15625 Z M 4.75 -8.296875 "/></g></g></g><g transform="matrix(1, 0, 0, 1, 50, 80)"><g clip-path="url(#8dbb673c2f)"><g fill="#0a714e" fill-opacity="1"><g transform="translate(1.299158, 8.162997)"><g><path d="M 4.140625 -3.125 L 4.546875 -5 L 5.53125 -5 L 4.46875 0 L 3.484375 0 L 3.96875 -2.28125 L 1.71875 -2.28125 L 1.234375 0 L 0.25 0 L 1.3125 -5 L 2.296875 -5 L 1.890625 -3.125 Z M 4.140625 -3.125 "/></g></g></g><g fill="#0a714e" fill-opacity="1"><g transform="translate(10.998368, 8.162997)"><g><path d="M 2.40625 0.078125 C 2.019531 0.078125 1.679688 0.00390625 1.390625 -0.140625 C 1.097656 -0.285156 0.867188 -0.5 0.703125 -0.78125 C 0.546875 -1.070312 0.46875 -1.425781 0.46875 -1.84375 C 0.46875 -2.113281 0.5 -2.398438 0.5625 -2.703125 C 0.675781 -3.210938 0.859375 -3.644531 1.109375 -4 C 1.367188 -4.351562 1.679688 -4.617188 2.046875 -4.796875 C 2.421875 -4.972656 2.835938 -5.0625 3.296875 -5.0625 C 3.691406 -5.0625 4.035156 -4.988281 4.328125 -4.84375 C 4.617188 -4.707031 4.84375 -4.5 5 -4.21875 C 5.15625 -3.9375 5.234375 -3.582031 5.234375 -3.15625 C 5.234375 -2.882812 5.203125 -2.597656 5.140625 -2.296875 C 5.023438 -1.773438 4.84375 -1.335938 4.59375 -0.984375 C 4.34375 -0.640625 4.03125 -0.375 3.65625 -0.1875 C 3.289062 -0.0078125 2.875 0.078125 2.40625 0.078125 Z M 2.484375 -0.78125 C 2.910156 -0.78125 3.265625 -0.921875 3.546875 -1.203125 C 3.828125 -1.484375 4.03125 -1.914062 4.15625 -2.5 C 4.207031 -2.726562 4.234375 -2.929688 4.234375 -3.109375 C 4.234375 -3.460938 4.144531 -3.734375 3.96875 -3.921875 C 3.789062 -4.117188 3.539062 -4.21875 3.21875 -4.21875 C 2.800781 -4.21875 2.445312 -4.078125 2.15625 -3.796875 C 1.875 -3.515625 1.671875 -3.082031 1.546875 -2.5 C 1.492188 -2.28125 1.46875 -2.078125 1.46875 -1.890625 C 1.46875 -1.535156 1.554688 -1.257812 1.734375 -1.0625 C 1.910156 -0.875 2.160156 -0.78125 2.484375 -0.78125 Z M 2.484375 -0.78125 "/></g></g></g><g fill="#0a714e" fill-opacity="1"><g transform="translate(20.629219, 8.162997)"><g><path d="M 2.328125 0.078125 C 1.953125 0.078125 1.632812 0.0195312 1.375 -0.09375 C 1.113281 -0.21875 0.914062 -0.390625 0.78125 -0.609375 C 0.644531 -0.835938 0.578125 -1.113281 0.578125 -1.4375 C 0.578125 -1.613281 0.597656 -1.800781 0.640625 -2 L 1.28125 -5 L 2.25 -5 L 1.59375 -1.875 C 1.5625 -1.75 1.546875 -1.632812 1.546875 -1.53125 C 1.546875 -1.28125 1.617188 -1.09375 1.765625 -0.96875 C 1.910156 -0.84375 2.125 -0.78125 2.40625 -0.78125 C 2.769531 -0.78125 3.054688 -0.867188 3.265625 -1.046875 C 3.484375 -1.222656 3.628906 -1.5 3.703125 -1.875 L 4.375 -5 L 5.34375 -5 L 4.671875 -1.875 C 4.578125 -1.414062 4.4375 -1.046875 4.25 -0.765625 C 4.0625 -0.484375 3.8125 -0.269531 3.5 -0.125 C 3.195312 0.0078125 2.804688 0.078125 2.328125 0.078125 Z M 2.328125 0.078125 "/></g></g></g><g fill="#0a714e" fill-opacity="1"><g transform="translate(30.113097, 8.162997)"><g><path d="M 1.8125 0.078125 C 1.488281 0.078125 1.203125 0.03125 0.953125 -0.0625 C 0.703125 -0.15625 0.5 -0.273438 0.34375 -0.421875 C 0.1875 -0.566406 0.0703125 -0.726562 0 -0.90625 L 0.671875 -1.515625 L 0.75 -1.515625 C 0.851562 -1.285156 1.003906 -1.101562 1.203125 -0.96875 C 1.410156 -0.84375 1.671875 -0.78125 1.984375 -0.78125 C 2.242188 -0.78125 2.453125 -0.832031 2.609375 -0.9375 C 2.765625 -1.050781 2.863281 -1.195312 2.90625 -1.375 C 2.914062 -1.4375 2.921875 -1.492188 2.921875 -1.546875 C 2.921875 -1.679688 2.878906 -1.789062 2.796875 -1.875 C 2.710938 -1.957031 2.566406 -2.023438 2.359375 -2.078125 L 1.875 -2.21875 C 1.507812 -2.320312 1.222656 -2.476562 1.015625 -2.6875 C 0.816406 -2.90625 0.71875 -3.171875 0.71875 -3.484375 C 0.71875 -3.585938 0.734375 -3.695312 0.765625 -3.8125 C 0.835938 -4.1875 1.035156 -4.488281 1.359375 -4.71875 C 1.679688 -4.945312 2.148438 -5.0625 2.765625 -5.0625 C 3.148438 -5.0625 3.472656 -5.003906 3.734375 -4.890625 C 4.003906 -4.785156 4.21875 -4.625 4.375 -4.40625 L 3.75 -3.78125 L 3.671875 -3.78125 C 3.554688 -3.925781 3.414062 -4.035156 3.25 -4.109375 C 3.082031 -4.179688 2.878906 -4.21875 2.640625 -4.21875 C 2.378906 -4.21875 2.164062 -4.171875 2 -4.078125 C 1.84375 -3.992188 1.75 -3.878906 1.71875 -3.734375 C 1.707031 -3.679688 1.703125 -3.632812 1.703125 -3.59375 C 1.703125 -3.46875 1.742188 -3.363281 1.828125 -3.28125 C 1.921875 -3.195312 2.054688 -3.132812 2.234375 -3.09375 L 2.78125 -2.9375 C 3.164062 -2.84375 3.457031 -2.691406 3.65625 -2.484375 C 3.851562 -2.285156 3.953125 -2.03125 3.953125 -1.71875 C 3.953125 -1.59375 3.9375 -1.46875 3.90625 -1.34375 C 3.707031 -0.394531 3.007812 0.078125 1.8125 0.078125 Z M 1.8125 0.078125 "/></g></g></g><g fill="#0a714e" fill-opacity="1"><g transform="translate(38.592089, 8.162997)"><g><path d="M 4.625 -5 L 4.453125 -4.171875 L 2.125 -4.171875 L 1.875 -3 L 3.90625 -3 L 3.734375 -2.1875 L 1.703125 -2.1875 L 1.40625 -0.828125 L 3.796875 -0.828125 L 3.625 0 L 0.25 0 L 1.3125 -5 Z M 4.625 -5 "/></g></g></g><g fill="#0a714e" fill-opacity="1"><g transform="translate(47.074499, 8.162997)"><g><path d="M 4.140625 -3.125 L 4.546875 -5 L 5.53125 -5 L 4.46875 0 L 3.484375 0 L 3.96875 -2.28125 L 1.71875 -2.28125 L 1.234375 0 L 0.25 0 L 1.3125 -5 L 2.296875 -5 L 1.890625 -3.125 Z M 4.140625 -3.125 "/></g></g></g><g fill="#0a714e" fill-opacity="1"><g transform="translate(56.77371, 8.162997)"><g><path d="M 2.40625 0.078125 C 2.019531 0.078125 1.679688 0.00390625 1.390625 -0.140625 C 1.097656 -0.285156 0.867188 -0.5 0.703125 -0.78125 C 0.546875 -1.070312 0.46875 -1.425781 0.46875 -1.84375 C 0.46875 -2.113281 0.5 -2.398438 0.5625 -2.703125 C 0.675781 -3.210938 0.859375 -3.644531 1.109375 -4 C 1.367188 -4.351562 1.679688 -4.617188 2.046875 -4.796875 C 2.421875 -4.972656 2.835938 -5.0625 3.296875 -5.0625 C 3.691406 -5.0625 4.035156 -4.988281 4.328125 -4.84375 C 4.617188 -4.707031 4.84375 -4.5 5 -4.21875 C 5.15625 -3.9375 5.234375 -3.582031 5.234375 -3.15625 C 5.234375 -2.882812 5.203125 -2.597656 5.140625 -2.296875 C 5.023438 -1.773438 4.84375 -1.335938 4.59375 -0.984375 C 4.34375 -0.640625 4.03125 -0.375 3.65625 -0.1875 C 3.289062 -0.0078125 2.875 0.078125 2.40625 0.078125 Z M 2.484375 -0.78125 C 2.910156 -0.78125 3.265625 -0.921875 3.546875 -1.203125 C 3.828125 -1.484375 4.03125 -1.914062 4.15625 -2.5 C 4.207031 -2.726562 4.234375 -2.929688 4.234375 -3.109375 C 4.234375 -3.460938 4.144531 -3.734375 3.96875 -3.921875 C 3.789062 -4.117188 3.539062 -4.21875 3.21875 -4.21875 C 2.800781 -4.21875 2.445312 -4.078125 2.15625 -3.796875 C 1.875 -3.515625 1.671875 -3.082031 1.546875 -2.5 C 1.492188 -2.28125 1.46875 -2.078125 1.46875 -1.890625 C 1.46875 -1.535156 1.554688 -1.257812 1.734375 -1.0625 C 1.910156 -0.875 2.160156 -0.78125 2.484375 -0.78125 Z M 2.484375 -0.78125 "/></g></g></g><g fill="#0a714e" fill-opacity="1"><g transform="translate(66.40456, 8.162997)"><g><path d="M 2.296875 -5 L 1.40625 -0.828125 L 3.65625 -0.828125 L 3.484375 0 L 0.25 0 L 1.3125 -5 Z M 2.296875 -5 "/></g></g></g><g fill="#0a714e" fill-opacity="1"><g transform="translate(74.637458, 8.162997)"><g><path d="M 3.0625 -5 C 3.5 -5 3.875 -4.921875 4.1875 -4.765625 C 4.5 -4.609375 4.734375 -4.382812 4.890625 -4.09375 C 5.046875 -3.8125 5.125 -3.472656 5.125 -3.078125 C 5.125 -2.859375 5.097656 -2.609375 5.046875 -2.328125 C 4.878906 -1.566406 4.550781 -0.988281 4.0625 -0.59375 C 3.570312 -0.195312 2.898438 0 2.046875 0 L 0.25 0 L 1.3125 -5 Z M 4.0625 -2.5 C 4.101562 -2.695312 4.125 -2.878906 4.125 -3.046875 C 4.125 -3.421875 4.015625 -3.703125 3.796875 -3.890625 C 3.585938 -4.078125 3.28125 -4.171875 2.875 -4.171875 L 2.125 -4.171875 L 1.421875 -0.828125 L 2.15625 -0.828125 C 2.664062 -0.828125 3.078125 -0.957031 3.390625 -1.21875 C 3.710938 -1.488281 3.9375 -1.914062 4.0625 -2.5 Z M 4.0625 -2.5 "/></g></g></g></g></g></svg>