<svg xmlns="http://www.w3.org/2000/svg" xmlns:xlink="http://www.w3.org/1999/xlink" width="40" zoomAndPan="magnify" viewBox="0 0 40 36.750001" height="49" preserveAspectRatio="xMidYMid meet" version="1.0"><defs><clipPath id="ded0f938b0"><path d="M 5 4.066406 L 33 4.066406 L 33 35.675781 L 5 35.675781 Z M 5 4.066406 " clip-rule="nonzero"/></clipPath><clipPath id="a5a145e82b"><path d="M 0.507812 0.371094 L 38 0.371094 L 38 19 L 0.507812 19 Z M 0.507812 0.371094 " clip-rule="nonzero"/></clipPath><clipPath id="a5d1bf865f"><path d="M 41 0.371094 L 61 0.371094 L 61 23 L 41 23 Z M 41 0.371094 " clip-rule="nonzero"/></clipPath><clipPath id="22fde0ef34"><path d="M 64 0.371094 L 83 0.371094 L 83 23 L 64 23 Z M 64 0.371094 " clip-rule="nonzero"/></clipPath><clipPath id="f10717248c"><path d="M 85 0.371094 L 104 0.371094 L 104 23 L 85 23 Z M 85 0.371094 " clip-rule="nonzero"/></clipPath><clipPath id="487e945745"><path d="M 105 0.371094 L 129 0.371094 L 129 23 L 105 23 Z M 105 0.371094 " clip-rule="nonzero"/></clipPath><clipPath id="43802f4159"><path d="M 131 0.371094 L 149 0.371094 L 149 23 L 131 23 Z M 131 0.371094 " clip-rule="nonzero"/></clipPath></defs><g clip-path="url(#ded0f938b0)"><path fill="#0a714e" d="M 21.039062 5.152344 C 20.027344 4.140625 18.390625 4.140625 17.382812 5.152344 L 6.183594 16.359375 C 5.691406 16.84375 5.421875 17.492188 5.421875 18.183594 L 5.421875 32.980469 C 5.421875 34.40625 6.582031 35.5625 8.003906 35.5625 L 14.035156 35.5625 C 15.460938 35.5625 16.617188 34.40625 16.617188 32.980469 L 16.617188 26.089844 C 16.617188 25.621094 17 25.230469 17.476562 25.230469 L 20.925781 25.230469 C 21.398438 25.230469 21.78125 25.621094 21.78125 26.089844 L 21.78125 32.988281 C 21.78125 34.410156 22.945312 35.574219 24.367188 35.574219 L 30.394531 35.574219 C 31.816406 35.574219 32.980469 34.410156 32.980469 32.988281 L 32.980469 18.183594 C 32.980469 17.492188 32.707031 16.84375 32.222656 16.359375 Z M 31.277344 32.980469 C 31.277344 33.457031 30.894531 33.839844 30.417969 33.839844 L 24.386719 33.839844 C 23.917969 33.839844 23.527344 33.457031 23.527344 32.980469 L 23.527344 26.089844 C 23.527344 24.667969 22.371094 23.507812 20.945312 23.507812 L 17.496094 23.507812 C 16.078125 23.507812 14.914062 24.667969 14.914062 26.089844 L 14.914062 32.988281 C 14.914062 33.460938 14.53125 33.84375 14.054688 33.84375 L 8.003906 33.84375 C 7.527344 33.84375 7.144531 33.460938 7.144531 32.988281 L 7.144531 18.183594 C 7.144531 17.953125 7.234375 17.742188 7.402344 17.574219 L 18.597656 6.371094 C 18.921875 6.046875 19.496094 6.046875 19.816406 6.371094 L 31.023438 17.574219 C 31.191406 17.742188 31.277344 17.953125 31.277344 18.183594 Z M 31.277344 32.980469 " fill-opacity="1" fill-rule="nonzero"/></g><g clip-path="url(#a5a145e82b)"><path fill="#0a714e" d="M 21.039062 0.84375 C 20.058594 -0.132812 18.355469 -0.132812 17.382812 0.84375 L 12.320312 5.914062 L 12.320312 4.980469 C 12.320312 3.558594 11.160156 2.394531 9.738281 2.394531 L 8.003906 2.394531 C 6.582031 2.394531 5.421875 3.558594 5.421875 4.980469 L 5.421875 12.808594 L 0.503906 17.726562 L 1.726562 18.945312 L 18.597656 2.066406 C 18.921875 1.742188 19.496094 1.742188 19.816406 2.066406 L 36.695312 18.945312 L 37.917969 17.726562 Z M 7.144531 4.980469 C 7.144531 4.503906 7.527344 4.121094 8.003906 4.121094 L 9.726562 4.121094 C 10.203125 4.121094 10.585938 4.503906 10.585938 4.980469 L 10.585938 7.636719 L 7.140625 11.085938 L 7.140625 4.980469 Z M 7.144531 4.980469 " fill-opacity="1" fill-rule="nonzero"/></g><g clip-path="url(#a5d1bf865f)"></g></svg>